<?xml version="1.0" standalone="no"?>
<!DOCTYPE svg PUBLIC "-//W3C//DTD SVG 20010904//EN"
 "http://www.w3.org/TR/2001/REC-SVG-20010904/DTD/svg10.dtd">
<svg version="1.0" xmlns="http://www.w3.org/2000/svg"
 width="260.000000pt" height="260.000000pt" viewBox="0 0 260.000000 260.000000"
 preserveAspectRatio="xMidYMid meet">
<metadata>
Created by potrace 1.11, written by Peter Selinger 2001-2013
</metadata>
<g transform="translate(0.000000,260.000000) scale(0.100000,-0.100000)"
fill="#000000" stroke="none">
<path d="M1225 2449 c-224 -17 -403 -67 -604 -168 -44 -23 -81 -44 -81 -47 0
-8 189 -379 203 -397 11 -15 19 -13 85 19 209 102 433 147 555 113 22 -6 55
-26 75 -44 34 -31 37 -37 36 -88 -2 -100 -49 -156 -245 -287 -216 -146 -269
-257 -260 -547 l1 -32 235 0 235 0 1 55 c1 30 3 59 4 64 1 6 3 17 4 25 2 28
97 113 216 191 197 130 310 258 349 395 25 87 27 98 27 184 0 105 -14 174 -51
249 -87 175 -288 291 -540 312 -125 10 -156 10 -245 3z"/>
<path d="M1173 729 c-103 -13 -178 -62 -220 -142 -23 -45 -27 -64 -27 -142 0
-79 3 -98 27 -147 49 -99 143 -149 281 -149 98 0 126 6 180 33 106 53 151 138
148 277 -5 194 -156 298 -389 270z"/>
</g>
</svg>
